<svg xmlns="http://www.w3.org/2000/svg" viewBox="0 0 1600 2560" width="1600" height="2560" preserveAspectRatio="xMidYMid meet" shape-rendering="geometricPrecision">
  <g id="background"><rect x="0" y="0" width="1600" height="2560" fill="#D8D0C0"/></g>
  <g id="symbol-fragments" transform="rotate(-10, 800, 850)">
    <polygon points="556,658 536,608 621,585 665,632 603,676" fill="#A62626"/>
    <polygon points="238,345 246,231 345,245 452,289 392,359 310,387" fill="#0D0D0D"/>
    <polygon points="401,1449 337,1530 230,1507 169,1449 198,1360 298,1273 395,1334" fill="#0D0D0D"/>
    <polygon points="438,323 375,340 296,298 322,201 363,124 420,148 496,171 481,282" fill="#0D0D0D"/>
    <polygon points="995,917 1008,795 1112,723 1185,823 1135,933" fill="#0D0D0D"/>
    <polygon points="1337,332 1210,323 1113,267 1197,176 1315,147 1414,233" fill="#0D0D0D"/>
    <polygon points="253,276 214,286 178,260 169,220 220,213 271,212 277,250" fill="#A62626"/>
    <polygon points="279,431 229,422 218,378 236,342 284,311 348,333 383,361 327,408" fill="#0D0D0D"/>
    <polygon points="778,389 656,298 703,151 843,145 843,262" fill="#0D0D0D"/>
    <polygon points="582,307 491,295 480,199 576,155 670,185 683,283" fill="#0D0D0D"/>
    <polygon points="353,254 315,312 256,313 236,262 251,200 294,162 351,200" fill="#0D0D0D"/>
    <polygon points="298,448 255,393 265,352 303,277 359,313 431,354 406,405 363,448" fill="#0D0D0D"/>
    <polygon points="993,324 907,421 769,364 790,256 927,199" fill="#A62626"/>
  </g>
  <g id="title-letterforms">
    <text x="120" y="1510" font-family="Arial Black, Arial, sans-serif" font-size="250" font-weight="900" letter-spacing="0" fill="#A62626" textLength="1300" lengthAdjust="spacingAndGlyphs">LIVING</text>
    <text x="120" y="1768" font-family="Arial Black, Arial, sans-serif" font-size="250" font-weight="900" letter-spacing="0" fill="#0D0D0D" textLength="1300" lengthAdjust="spacingAndGlyphs">MODELS</text>
  </g>
</svg>
